<mxfile host="app.diagrams.net" modified="2023-04-26T08:50:39.981Z" agent="Mozilla/5.0 (Macintosh; Intel Mac OS X 10.15; rv:109.0) Gecko/20100101 Firefox/112.0" etag="GCixB5BLRQSW5VwVgN3_" version="21.2.1" type="device">
  <diagram name="Page-1" id="e6lIuuK2Z4Z-aSJEX-Hl">
    <mxGraphModel dx="1794" dy="1723" grid="1" gridSize="10" guides="1" tooltips="1" connect="1" arrows="1" fold="1" page="1" pageScale="1" pageWidth="850" pageHeight="1100" math="0" shadow="0">
      <root>
        <mxCell id="0" />
        <mxCell id="1" parent="0" />
        <mxCell id="mOISv2A-V3p_yXu7Uv43-1" value="Client" style="verticalAlign=top;align=left;spacingTop=8;spacingLeft=2;spacingRight=12;shape=cube;size=10;direction=south;fontStyle=4;html=1;whiteSpace=wrap;" vertex="1" parent="1">
          <mxGeometry x="350" y="600" width="180" height="120" as="geometry" />
        </mxCell>
        <mxCell id="mOISv2A-V3p_yXu7Uv43-2" value="Proxy" style="verticalAlign=top;align=left;spacingTop=8;spacingLeft=2;spacingRight=12;shape=cube;size=10;direction=south;fontStyle=4;html=1;whiteSpace=wrap;" vertex="1" parent="1">
          <mxGeometry x="360" y="420" width="180" height="120" as="geometry" />
        </mxCell>
        <mxCell id="mOISv2A-V3p_yXu7Uv43-5" value="Upload service" style="verticalAlign=top;align=left;spacingTop=8;spacingLeft=2;spacingRight=12;shape=cube;size=10;direction=south;fontStyle=4;html=1;whiteSpace=wrap;" vertex="1" parent="1">
          <mxGeometry x="550" y="190" width="180" height="120" as="geometry" />
        </mxCell>
        <mxCell id="mOISv2A-V3p_yXu7Uv43-8" value="Object storage" style="verticalAlign=top;align=left;spacingTop=8;spacingLeft=2;spacingRight=12;shape=cube;size=10;direction=south;fontStyle=4;html=1;whiteSpace=wrap;" vertex="1" parent="1">
          <mxGeometry x="550" y="-30" width="180" height="120" as="geometry" />
        </mxCell>
        <mxCell id="mOISv2A-V3p_yXu7Uv43-10" value="" style="endArrow=none;html=1;edgeStyle=orthogonalEdgeStyle;rounded=0;entryX=0;entryY=0;entryDx=0;entryDy=85;entryPerimeter=0;" edge="1" parent="1" source="mOISv2A-V3p_yXu7Uv43-8" target="mOISv2A-V3p_yXu7Uv43-5">
          <mxGeometry relative="1" as="geometry">
            <mxPoint x="310" y="220" as="sourcePoint" />
            <mxPoint x="470" y="220" as="targetPoint" />
          </mxGeometry>
        </mxCell>
        <mxCell id="mOISv2A-V3p_yXu7Uv43-13" value="" style="endArrow=none;html=1;edgeStyle=orthogonalEdgeStyle;rounded=0;entryX=0;entryY=0;entryDx=120;entryDy=95;entryPerimeter=0;exitX=0.008;exitY=0.167;exitDx=0;exitDy=0;exitPerimeter=0;" edge="1" parent="1" source="mOISv2A-V3p_yXu7Uv43-2" target="mOISv2A-V3p_yXu7Uv43-5">
          <mxGeometry relative="1" as="geometry">
            <mxPoint x="600" y="120" as="sourcePoint" />
            <mxPoint x="655" y="240" as="targetPoint" />
          </mxGeometry>
        </mxCell>
        <mxCell id="mOISv2A-V3p_yXu7Uv43-14" value="" style="endArrow=none;html=1;edgeStyle=orthogonalEdgeStyle;rounded=0;entryX=0;entryY=0;entryDx=0;entryDy=85;entryPerimeter=0;exitX=0;exitY=0;exitDx=120;exitDy=95;exitPerimeter=0;" edge="1" parent="1" source="mOISv2A-V3p_yXu7Uv43-2" target="mOISv2A-V3p_yXu7Uv43-1">
          <mxGeometry relative="1" as="geometry">
            <mxPoint x="520" y="431" as="sourcePoint" />
            <mxPoint x="645" y="360" as="targetPoint" />
          </mxGeometry>
        </mxCell>
        <mxCell id="mOISv2A-V3p_yXu7Uv43-15" value="Audio service" style="verticalAlign=top;align=left;spacingTop=8;spacingLeft=2;spacingRight=12;shape=cube;size=10;direction=south;fontStyle=4;html=1;whiteSpace=wrap;" vertex="1" parent="1">
          <mxGeometry x="270" y="200" width="180" height="120" as="geometry" />
        </mxCell>
        <mxCell id="mOISv2A-V3p_yXu7Uv43-16" value="" style="endArrow=none;html=1;edgeStyle=orthogonalEdgeStyle;rounded=0;entryX=0;entryY=0;entryDx=65;entryDy=180;entryPerimeter=0;exitX=0;exitY=0;exitDx=55;exitDy=0;exitPerimeter=0;" edge="1" parent="1" source="mOISv2A-V3p_yXu7Uv43-15" target="mOISv2A-V3p_yXu7Uv43-5">
          <mxGeometry relative="1" as="geometry">
            <mxPoint x="426" y="255" as="sourcePoint" />
            <mxPoint x="550" y="255" as="targetPoint" />
          </mxGeometry>
        </mxCell>
        <mxCell id="mOISv2A-V3p_yXu7Uv43-18" value="" style="endArrow=none;html=1;edgeStyle=orthogonalEdgeStyle;rounded=0;exitX=0;exitY=0;exitDx=0;exitDy=85;exitPerimeter=0;entryX=0;entryY=0;entryDx=65;entryDy=180;entryPerimeter=0;" edge="1" parent="1" source="mOISv2A-V3p_yXu7Uv43-15" target="mOISv2A-V3p_yXu7Uv43-8">
          <mxGeometry relative="1" as="geometry">
            <mxPoint x="460" y="265" as="sourcePoint" />
            <mxPoint x="500" y="120" as="targetPoint" />
            <Array as="points">
              <mxPoint x="430" y="200" />
              <mxPoint x="430" y="35" />
            </Array>
          </mxGeometry>
        </mxCell>
        <mxCell id="mOISv2A-V3p_yXu7Uv43-19" value="" style="endArrow=none;html=1;edgeStyle=orthogonalEdgeStyle;rounded=0;exitX=0;exitY=0;exitDx=120;exitDy=95;exitPerimeter=0;entryX=0;entryY=0.589;entryDx=0;entryDy=0;entryPerimeter=0;" edge="1" parent="1" source="mOISv2A-V3p_yXu7Uv43-15" target="mOISv2A-V3p_yXu7Uv43-2">
          <mxGeometry relative="1" as="geometry">
            <mxPoint x="375" y="210" as="sourcePoint" />
            <mxPoint x="510" y="65" as="targetPoint" />
          </mxGeometry>
        </mxCell>
        <mxCell id="mOISv2A-V3p_yXu7Uv43-20" value="Transcode service" style="verticalAlign=top;align=left;spacingTop=8;spacingLeft=2;spacingRight=12;shape=cube;size=10;direction=south;fontStyle=4;html=1;whiteSpace=wrap;" vertex="1" parent="1">
          <mxGeometry x="-120" y="190" width="180" height="120" as="geometry" />
        </mxCell>
        <mxCell id="mOISv2A-V3p_yXu7Uv43-21" value="Message Broker" style="verticalAlign=top;align=left;spacingTop=8;spacingLeft=2;spacingRight=12;shape=cube;size=10;direction=south;fontStyle=4;html=1;whiteSpace=wrap;" vertex="1" parent="1">
          <mxGeometry x="130" y="210" width="80" height="80" as="geometry" />
        </mxCell>
        <mxCell id="mOISv2A-V3p_yXu7Uv43-22" value="" style="endArrow=none;html=1;edgeStyle=orthogonalEdgeStyle;rounded=0;entryX=0;entryY=0;entryDx=65;entryDy=180;entryPerimeter=0;exitX=0;exitY=0;exitDx=35;exitDy=0;exitPerimeter=0;" edge="1" parent="1" source="mOISv2A-V3p_yXu7Uv43-21" target="mOISv2A-V3p_yXu7Uv43-15">
          <mxGeometry relative="1" as="geometry">
            <mxPoint x="460" y="265" as="sourcePoint" />
            <mxPoint x="560" y="265" as="targetPoint" />
          </mxGeometry>
        </mxCell>
        <mxCell id="mOISv2A-V3p_yXu7Uv43-24" value="" style="endArrow=none;html=1;edgeStyle=orthogonalEdgeStyle;rounded=0;entryX=0;entryY=0;entryDx=45;entryDy=80;entryPerimeter=0;exitX=0;exitY=0;exitDx=55;exitDy=0;exitPerimeter=0;" edge="1" parent="1" source="mOISv2A-V3p_yXu7Uv43-20" target="mOISv2A-V3p_yXu7Uv43-21">
          <mxGeometry relative="1" as="geometry">
            <mxPoint x="220" y="255" as="sourcePoint" />
            <mxPoint x="280" y="275" as="targetPoint" />
          </mxGeometry>
        </mxCell>
        <mxCell id="mOISv2A-V3p_yXu7Uv43-25" value="" style="endArrow=none;html=1;edgeStyle=orthogonalEdgeStyle;rounded=0;entryX=0;entryY=0;entryDx=0;entryDy=170;entryPerimeter=0;exitX=0;exitY=0;exitDx=0;exitDy=85;exitPerimeter=0;" edge="1" parent="1" source="mOISv2A-V3p_yXu7Uv43-20" target="mOISv2A-V3p_yXu7Uv43-8">
          <mxGeometry relative="1" as="geometry">
            <mxPoint x="70" y="255" as="sourcePoint" />
            <mxPoint x="140" y="265" as="targetPoint" />
            <Array as="points">
              <mxPoint y="190" />
              <mxPoint y="-110" />
              <mxPoint x="580" y="-110" />
              <mxPoint x="580" y="-30" />
            </Array>
          </mxGeometry>
        </mxCell>
        <mxCell id="mOISv2A-V3p_yXu7Uv43-27" value="Database" style="verticalAlign=top;align=left;spacingTop=8;spacingLeft=2;spacingRight=12;shape=cube;size=10;direction=south;fontStyle=4;html=1;whiteSpace=wrap;" vertex="1" parent="1">
          <mxGeometry x="150" y="-50" width="180" height="120" as="geometry" />
        </mxCell>
        <mxCell id="mOISv2A-V3p_yXu7Uv43-29" value="" style="endArrow=none;html=1;edgeStyle=orthogonalEdgeStyle;rounded=0;entryX=-0.025;entryY=0.683;entryDx=0;entryDy=0;entryPerimeter=0;exitX=0;exitY=0;exitDx=120;exitDy=95;exitPerimeter=0;" edge="1" parent="1" source="mOISv2A-V3p_yXu7Uv43-27" target="mOISv2A-V3p_yXu7Uv43-15">
          <mxGeometry relative="1" as="geometry">
            <mxPoint x="70" y="255" as="sourcePoint" />
            <mxPoint x="140" y="265" as="targetPoint" />
          </mxGeometry>
        </mxCell>
      </root>
    </mxGraphModel>
  </diagram>
</mxfile>
